<svg width="156" height="152" viewBox="0 0 156 152" fill="none" xmlns="http://www.w3.org/2000/svg">
<path d="M78 0.5C67.8226 0.5 57.7448 2.5046 48.342 6.39934C38.9393 10.2941 30.3958 16.0027 23.1992 23.1992C8.66515 37.7333 0.5 57.4457 0.5 78C0.5 112.255 22.7425 141.317 53.51 151.625C57.385 152.245 58.625 149.843 58.625 147.75V134.652C37.1575 139.302 32.585 124.267 32.585 124.267C29.02 115.277 23.9825 112.875 23.9825 112.875C16.93 108.07 24.525 108.225 24.525 108.225C32.275 108.767 36.3825 116.208 36.3825 116.208C43.125 127.988 54.5175 124.5 58.935 122.64C59.6325 117.603 61.6475 114.193 63.8175 112.255C46.6125 110.318 28.555 103.652 28.555 74.125C28.555 65.5225 31.5 58.625 36.5375 53.1225C35.7625 51.185 33.05 43.125 37.3125 32.6625C37.3125 32.6625 43.8225 30.57 58.625 40.5675C64.7475 38.8625 71.4125 38.01 78 38.01C84.5875 38.01 91.2525 38.8625 97.375 40.5675C112.177 30.57 118.688 32.6625 118.688 32.6625C122.95 43.125 120.238 51.185 119.463 53.1225C124.5 58.625 127.445 65.5225 127.445 74.125C127.445 103.73 109.31 110.24 92.0275 112.177C94.8175 114.58 97.375 119.308 97.375 126.515V147.75C97.375 149.843 98.615 152.323 102.568 151.625C133.335 141.24 155.5 112.255 155.5 78C155.5 67.8226 153.495 57.7448 149.601 48.342C145.706 38.9393 139.997 30.3958 132.801 23.1992C125.604 16.0027 117.061 10.2941 107.658 6.39934C98.2552 2.5046 88.1774 0.5 78 0.5Z" fill="black"/>
</svg>
