<svg width="178" height="178" viewBox="0 0 178 178" fill="none" xmlns="http://www.w3.org/2000/svg">
<path d="M61.6154 82.1538V130.077C61.6154 132.8 60.5335 135.413 58.6076 137.338C56.6817 139.264 54.0697 140.346 51.3462 140.346C48.6226 140.346 46.0106 139.264 44.0847 137.338C42.1589 135.413 41.0769 132.8 41.0769 130.077V82.1538C41.0769 79.4303 42.1589 76.8183 44.0847 74.8924C46.0106 72.9665 48.6226 71.8846 51.3462 71.8846C54.0697 71.8846 56.6817 72.9665 58.6076 74.8924C60.5335 76.8183 61.6154 79.4303 61.6154 82.1538ZM85.5769 140.346C88.3005 140.346 90.9125 139.264 92.8384 137.338C94.7642 135.413 95.8462 132.8 95.8462 130.077V106.115C95.8462 102.484 97.2887 99.0013 99.8565 96.4335C102.424 93.8657 105.907 92.4231 109.538 92.4231C113.17 92.4231 116.653 93.8657 119.22 96.4335C121.788 99.0013 123.231 102.484 123.231 106.115V130.077C123.231 132.8 124.313 135.413 126.239 137.338C128.164 139.264 130.776 140.346 133.5 140.346C136.224 140.346 138.836 139.264 140.761 137.338C142.687 135.413 143.769 132.8 143.769 130.077V106.115C143.767 100.223 142.245 94.4318 139.349 89.3007C136.453 84.1697 132.281 79.873 127.238 76.8264C122.195 73.7799 116.451 72.0867 110.562 71.9105C104.672 71.7344 98.8373 73.0814 93.6211 75.8212C92.299 74.1549 90.492 72.9403 88.4498 72.3452C86.4076 71.7501 84.2311 71.8039 82.2207 72.499C80.2104 73.1942 78.4656 74.4964 77.2272 76.2259C75.9889 77.9554 75.3182 80.0268 75.3077 82.1538V130.077C75.3077 132.8 76.3896 135.413 78.3155 137.338C80.2413 139.264 82.8534 140.346 85.5769 140.346ZM178 17.1154V160.885C177.978 165.417 176.167 169.757 172.962 172.962C169.757 176.167 165.417 177.978 160.885 178H17.1154C12.583 177.978 8.24273 176.167 5.03783 172.962C1.83294 169.757 0.0224935 165.417 0 160.885V17.1154C0.0224935 12.583 1.83294 8.24273 5.03783 5.03783C8.24273 1.83294 12.583 0.0224935 17.1154 0H160.885C165.417 0.0224935 169.757 1.83294 172.962 5.03783C176.167 8.24273 177.978 12.583 178 17.1154ZM157.462 20.5385H20.5385V157.462H157.462V20.5385ZM51.3462 61.6154C54.0542 61.6154 56.7015 60.8123 58.9532 59.3078C61.2049 57.8033 62.9599 55.6648 63.9962 53.1629C65.0325 50.661 65.3037 47.9079 64.7754 45.2518C64.247 42.5958 62.943 40.1561 61.0281 38.2412C59.1132 36.3263 56.6734 35.0222 54.0174 34.4939C51.3613 33.9655 48.6083 34.2367 46.1063 35.273C43.6044 36.3094 41.4659 38.0644 39.9614 40.316C38.4569 42.5677 37.6538 45.215 37.6538 47.9231C37.6538 51.5545 39.0964 55.0372 41.6642 57.605C44.232 60.1728 47.7147 61.6154 51.3462 61.6154Z" fill="black"/>
</svg>
