<svg width="142" height="114" viewBox="0 0 142 114" fill="none" xmlns="http://www.w3.org/2000/svg">
<path d="M138.596 18.0275C141.833 30.65 141.833 57 141.833 57C141.833 57 141.833 83.35 138.596 95.9725C136.797 102.95 131.534 108.439 124.869 110.295C112.763 113.667 71.0001 113.667 71.0001 113.667C71.0001 113.667 29.258 113.667 17.1313 110.295C10.4376 108.411 5.18175 102.928 3.40383 95.9725C0.166748 83.35 0.166748 57 0.166748 57C0.166748 57 0.166748 30.65 3.40383 18.0275C5.203 11.0505 10.4659 5.56087 17.1313 3.70504C29.258 0.333373 71.0001 0.333374 71.0001 0.333374C71.0001 0.333374 112.763 0.333373 124.869 3.70504C131.563 5.58921 136.818 11.0717 138.596 18.0275ZM56.8334 81.7917L99.3334 57L56.8334 32.2084V81.7917Z" fill="black"/>
</svg>
